<svg width="37" height="36" viewBox="0 0 37 36" fill="none" xmlns="http://www.w3.org/2000/svg">
<g clip-path="url(#clip0_515_721)">
<path d="M16.7 0C12.4035 0 8.28296 1.70678 5.24487 4.74487C2.20678 7.78296 0.5 11.9035 0.5 16.2C0.5 20.4965 2.20678 24.617 5.24487 27.6551C8.28296 30.6932 12.4035 32.4 16.7 32.4C20.9965 32.4 25.117 30.6932 28.1551 27.6551C31.1932 24.617 32.9 20.4965 32.9 16.2C32.9 11.9035 31.1932 7.78296 28.1551 4.74487C25.117 1.70678 20.9965 0 16.7 0ZM2.498 17.424H7.016C7.088 19.062 7.3166 20.6892 7.7 22.284H3.812C3.08697 20.7556 2.64193 19.1095 2.498 17.424ZM17.924 7.704V2.142C19.6586 2.8012 21.084 4.08532 21.92 5.742C22.289 6.3666 22.6148 7.0164 22.892 7.686L17.924 7.704ZM23.72 10.134C24.1376 11.7234 24.386 13.3524 24.458 14.994H17.924V10.134H23.72ZM15.476 2.142V7.704H10.508C10.7857 7.03385 11.1105 6.38423 11.48 5.76C12.3124 4.09654 13.7383 2.80559 15.476 2.142ZM15.476 10.134V14.994H8.96C9.032 13.3524 9.2804 11.7234 9.698 10.134H15.476ZM7.016 14.976H2.498C2.64193 13.2905 3.08697 11.6444 3.812 10.116H7.7C7.31587 11.7102 7.0868 13.3377 7.016 14.976ZM8.96 17.424H15.476V22.284H9.698C9.28047 20.6947 9.03308 19.0656 8.96 17.424ZM15.494 24.624V30.186C13.7594 29.5268 12.334 28.2427 11.498 26.586C11.1285 25.9618 10.8037 25.3121 10.526 24.642L15.494 24.624ZM17.924 30.186V24.714H22.892C22.6143 25.3841 22.2895 26.0338 21.92 26.658C21.084 28.3147 19.6586 29.5988 17.924 30.258V30.186ZM17.924 22.194V17.334H24.44C24.3669 18.9756 24.1195 20.6047 23.702 22.194H17.924ZM26.402 17.334H30.92C30.7761 19.0195 30.331 20.6656 29.606 22.194H25.7C26.078 20.628 26.3066 19.0314 26.384 17.424L26.402 17.334ZM26.402 14.904C26.3196 13.2954 26.0845 11.6982 25.7 10.134H29.588C30.3134 11.664 30.758 13.3092 30.902 14.994L26.402 14.904ZM28.202 7.704H24.98C24.397 6.06654 23.552 4.53461 22.478 3.168C24.7179 4.17344 26.6635 5.73489 28.13 7.704H28.202ZM10.922 3.168C9.84798 4.53461 9.00298 6.06654 8.42 7.704H5.27C6.7365 5.73489 8.68211 4.17344 10.922 3.168ZM5.252 24.768H8.42C9.00298 26.4055 9.84798 27.9374 10.922 29.304C8.67592 28.2834 6.7297 26.7029 5.27 24.714L5.252 24.768ZM22.46 29.304C23.534 27.9374 24.379 26.4055 24.962 24.768H28.13C26.6545 26.7107 24.7097 28.2468 22.478 29.232L22.46 29.304Z" fill="#E6631A"/>
</g>
<defs>
<clipPath id="clip0_515_721">
<rect width="36" height="36" fill="white" transform="translate(0.5)"/>
</clipPath>
</defs>
</svg>
