<svg width="25" height="28" viewBox="0 0 25 28" fill="none" xmlns="http://www.w3.org/2000/svg">
<path d="M12.5 0.5C5.87 0.5 0.5 3.185 0.5 6.5C0.5 9.815 5.87 12.5 12.5 12.5C19.13 12.5 24.5 9.815 24.5 6.5C24.5 3.185 19.13 0.5 12.5 0.5ZM0.5 9.5V14C0.5 17.315 5.87 20 12.5 20C19.13 20 24.5 17.315 24.5 14V9.5C24.5 12.815 19.13 15.5 12.5 15.5C5.87 15.5 0.5 12.815 0.5 9.5ZM0.5 17V21.5C0.5 24.815 5.87 27.5 12.5 27.5C19.13 27.5 24.5 24.815 24.5 21.5V17C24.5 20.315 19.13 23 12.5 23C5.87 23 0.5 20.315 0.5 17Z" fill="#478CCD"/>
</svg>
